<svg version="1.1" id="Layer_1" xmlns="http://www.w3.org/2000/svg" xmlns:xlink="http://www.w3.org/1999/xlink" x="0px" y="0px"
	 width="100%" viewBox="0 0 770 769" enable-background="new 0 0 770 769" xml:space="preserve">
<path fill="#000000" opacity="1.000000" stroke="none" 
	d="
M2221.531250,1.000000 
	C2222.000000,122.798241 2222.000000,244.596481 2222.000000,367.000000 
	C2219.902344,367.000000 2218.132812,367.000000 2216.363281,367.000000 
	C2173.698486,367.000000 2131.028076,367.407379 2088.371338,366.826416 
	C2067.355713,366.540161 2048.136719,359.529816 2031.181274,346.725555 
	C2018.148804,336.884033 2007.581787,325.016937 2000.670654,310.165039 
	C1995.080078,298.150726 1991.062866,285.582520 1990.055298,272.298584 
	C1989.106934,259.792755 1987.643677,247.201462 1988.218018,234.731201 
	C1989.323730,210.730072 1993.869629,187.363724 2008.026367,167.111465 
	C2024.019165,144.232651 2045.754761,129.896271 2073.367676,125.082619 
	C2080.779785,123.790459 2088.388184,123.195885 2095.917969,123.090950 
	C2115.390869,122.819595 2134.869873,123.000000 2155.000000,123.000000 
	C2155.000000,82.455940 2155.000000,42.196629 2155.000000,1.468657 
	C2177.020752,1.000000 2199.041748,1.000000 2221.531250,1.000000 
M2076.013672,297.518921 
	C2084.197998,303.495636 2093.118652,307.817352 2103.415039,307.955719 
	C2120.444336,308.184570 2137.478516,308.017914 2154.755859,308.017914 
	C2154.755859,266.178314 2154.755859,223.816376 2154.755859,181.997879 
	C2136.806885,181.997879 2119.074707,181.327560 2101.419189,182.203400 
	C2086.460938,182.945450 2074.524658,190.551987 2065.691895,202.732529 
	C2057.557861,213.949692 2055.359375,227.137207 2055.286865,240.320892 
	C2055.226074,251.334839 2056.852295,262.545776 2059.255615,273.329834 
	C2061.407227,282.984558 2066.810547,291.357758 2076.013672,297.518921 
z"/>
<path fill="#04C2CB" opacity="1.000000" stroke="none" 
	d="
M411.010834,740.834412 
	C401.990997,745.233032 393.155823,750.074280 383.910187,753.931763 
	C368.065979,760.542175 351.516907,764.870483 333.789185,767.651001 
	C327.384064,768.651794 321.692047,769.325867 316.000000,770.000000 
	C305.645782,770.000000 295.291534,770.000000 284.468658,770.000000 
	C279.498932,769.337158 275.006134,768.611145 270.495422,768.022278 
	C249.429047,765.272034 229.206421,759.638733 209.606567,751.358948 
	C189.328384,742.792603 170.734314,731.422302 154.148987,717.223572 
	C142.761154,707.474548 131.952988,696.620972 122.833977,684.762878 
	C112.636551,671.502380 103.782204,657.007263 95.892464,642.222717 
	C84.947212,621.712280 78.378113,599.392639 75.320702,576.398926 
	C73.339661,561.500244 72.754761,546.262390 73.208115,531.226746 
	C74.045479,503.454926 81.161911,476.916016 91.634880,451.080383 
	C104.445351,459.840576 116.714516,468.778442 129.524277,476.859375 
	C147.820328,488.401276 166.404160,499.501831 185.112198,510.365326 
	C189.694382,513.026123 191.112518,515.553528 190.023315,520.782776 
	C182.951752,554.732788 190.791824,585.361389 212.042648,612.428040 
	C230.395874,635.804199 254.446762,649.873169 284.062836,654.032349 
	C297.471283,655.915344 310.814209,655.396240 324.708130,653.215698 
	C326.776398,655.050171 328.194244,656.678406 329.716797,658.202148 
	C355.422913,683.928650 381.153931,709.630310 406.829987,735.386719 
	C408.432526,736.994324 409.626678,739.009094 411.010834,740.834412 
z"/>
<path fill="#0CD0DA" opacity="1.000000" stroke="none" 
	d="
M1.949704,237.106567 
	C1.949705,237.106567 1.478999,237.016327 1.239499,237.008163 
	C1.000000,231.645065 1.000000,226.290146 1.338689,220.209015 
	C2.762051,209.165390 3.564679,198.808899 4.986536,188.538147 
	C8.630311,162.217407 18.486240,138.025986 31.134806,114.891762 
	C33.635769,110.317497 36.991993,106.210846 39.973164,102.287727 
	C41.444298,105.740204 42.211407,109.468384 44.453342,111.742813 
	C67.884064,135.513123 91.495216,159.107117 115.246811,182.557083 
	C117.428291,184.710876 120.925041,185.532486 123.811043,186.972702 
	C113.065781,214.520920 113.242950,242.075348 123.890633,269.586334 
	C129.647507,284.460663 138.883652,296.930084 149.814209,308.501221 
	C171.076691,331.009735 196.849319,347.442810 222.673355,363.816071 
	C235.487274,371.940552 248.379074,380.139282 261.976715,386.788971 
	C289.130554,400.067993 317.493652,410.475922 346.523499,418.947083 
	C358.681824,422.494995 370.995361,425.509857 383.167450,429.013275 
	C384.658539,429.442474 386.657379,431.291107 386.819244,432.669952 
	C388.770935,449.293335 390.273651,465.941040 388.095001,482.695282 
	C385.948792,499.200104 384.081635,515.741150 381.954834,532.248657 
	C381.413452,536.450684 380.351837,540.585754 379.294861,545.938538 
	C354.739105,539.448364 330.581696,533.063477 306.303314,526.076538 
	C308.849762,522.203125 306.693329,520.154907 304.447052,517.909607 
	C206.021729,419.528320 107.622719,321.120697 9.204068,222.732727 
	C8.011643,221.540680 6.605436,220.562485 4.540181,218.858307 
	C3.566981,225.713882 2.758342,231.410217 1.949704,237.106567 
z"/>
<path fill="#000000" opacity="1.000000" stroke="none" 
	d="
M1306.042236,767.885254 
	C1294.477417,763.835815 1282.393188,760.847473 1271.464111,755.498779 
	C1253.077271,746.500427 1239.246826,732.055420 1228.831299,714.432922 
	C1220.432007,700.221558 1214.802856,684.769043 1213.335815,668.510620 
	C1211.916382,652.781311 1212.458252,636.802124 1213.145386,620.976379 
	C1213.823364,605.359985 1218.432129,590.544495 1225.745361,576.689331 
	C1240.676147,548.402161 1263.119751,529.384399 1294.265259,520.820435 
	C1304.764282,517.933594 1315.301636,516.536438 1326.147827,515.845093 
	C1346.189453,514.567505 1365.552002,516.908203 1384.424072,523.751343 
	C1403.407471,530.634827 1418.807373,542.270325 1431.511597,557.893127 
	C1445.273682,574.817139 1453.532471,594.066772 1455.876099,615.587646 
	C1457.356934,629.186768 1458.406616,642.998962 1457.762207,656.626282 
	C1456.661255,679.910706 1450.334595,702.047852 1436.793579,721.338379 
	C1419.396851,746.121582 1395.692749,761.627686 1365.661255,767.069092 
	C1363.790894,767.408020 1362.064697,768.544006 1360.135742,769.654541 
	C1347.312378,770.000000 1334.624878,770.000000 1321.277344,769.620605 
	C1315.759155,768.789246 1310.900635,768.337280 1306.042236,767.885254 
M1355.140137,708.942993 
	C1364.528931,705.121155 1372.138794,698.948303 1377.992310,690.787659 
	C1388.816284,675.697449 1390.595215,658.026428 1390.748657,640.335449 
	C1390.825562,631.484924 1389.106567,622.405640 1386.825195,613.794128 
	C1382.651001,598.038452 1374.036865,585.261108 1358.750732,577.949280 
	C1346.211914,571.951538 1333.024902,571.352661 1319.944580,574.786316 
	C1313.220459,576.551453 1306.334839,579.691406 1300.889160,583.955872 
	C1285.813843,595.760986 1280.614380,612.968994 1279.229004,631.060547 
	C1278.127686,645.443176 1278.295410,660.005920 1282.940308,674.107727 
	C1286.802612,685.833313 1293.062744,695.903625 1303.167969,702.926086 
	C1318.990356,713.921692 1336.431030,714.070435 1355.140137,708.942993 
z"/>
<path fill="#16E2EC" opacity="1.000000" stroke="none" 
	d="
M347.039795,122.115128 
	C333.411407,130.043762 319.783020,137.972397 306.837769,145.503601 
	C296.632690,138.999954 287.226654,131.940643 276.910492,126.658928 
	C257.127441,116.530319 235.764526,114.203453 213.409027,116.304321 
	C213.537766,112.013573 211.773315,109.162460 208.975830,106.383781 
	C185.024017,82.592781 161.124832,58.747684 137.391525,34.739227 
	C134.358078,31.670628 132.367233,27.571394 130.094696,23.659664 
	C152.558716,12.495727 175.955658,5.552820 200.627396,2.952933 
	C205.103821,2.481212 209.543411,1.659915 214.000000,1.000000 
	C216.700012,1.000000 219.400024,1.000000 222.709442,1.311108 
	C227.726410,4.095852 232.949081,5.744676 236.415619,9.170518 
	C271.716003,44.056435 306.753235,79.208969 341.769592,114.380997 
	C343.933075,116.554108 345.301483,119.518753 347.039795,122.115128 
z"/>
<path fill="#19E8F1" opacity="1.000000" stroke="none" 
	d="
M347.394775,122.051285 
	C345.301483,119.518753 343.933075,116.554108 341.769592,114.380997 
	C306.753235,79.208969 271.716003,44.056435 236.415619,9.170518 
	C232.949081,5.744676 227.726410,4.095852 223.159424,1.311108 
	C229.687637,1.000000 236.375290,1.000000 243.531464,0.999999 
	C248.471252,1.663389 252.925217,2.491904 257.416687,2.962337 
	C280.015167,5.329297 301.404175,11.936492 322.136871,21.010283 
	C340.186371,28.909771 356.926697,39.099220 371.884949,51.750820 
	C382.852722,61.027271 392.493195,71.881775 402.626190,82.130905 
	C405.618988,85.158035 408.274597,88.518562 410.708923,91.297333 
	C389.578796,101.597427 368.664276,111.792435 347.394775,122.051285 
z"/>
<path fill="#000000" opacity="1.000000" stroke="none" 
	d="
M2142.000000,638.000000 
	C2142.000000,628.000732 2142.209961,618.495728 2141.948242,609.003662 
	C2141.602783,596.473206 2136.467529,586.627319 2124.588623,581.352051 
	C2121.545654,580.000671 2118.045410,579.410217 2114.695801,579.089233 
	C2110.732422,578.709412 2106.660400,579.382812 2102.714600,578.921021 
	C2094.291016,577.935120 2087.223877,580.955505 2080.812256,585.838684 
	C2079.643066,586.729126 2079.076416,589.065247 2079.072998,590.735718 
	C2078.981689,635.898621 2079.000000,681.061829 2079.000000,726.224915 
	C2079.000000,738.886475 2079.000000,751.548096 2079.000000,764.604614 
	C2056.798340,764.604614 2034.743286,764.604614 2012.000000,764.604614 
	C2012.000000,762.828613 2012.000000,760.903137 2012.000000,758.977722 
	C2012.000000,703.148804 2011.970093,647.319763 2012.065063,591.491028 
	C2012.071655,587.650024 2011.244507,585.488586 2007.417480,583.502930 
	C2001.059937,580.204468 1994.781616,578.649780 1987.617920,578.887207 
	C1975.317749,579.294861 1962.994263,579.000000 1950.161865,579.000000 
	C1950.161865,640.977112 1950.161865,702.697327 1950.161865,764.707764 
	C1927.588501,764.707764 1905.534546,764.707764 1883.239990,764.707764 
	C1883.239990,683.604675 1883.239990,602.671875 1883.239990,521.000000 
	C1884.945679,521.000000 1886.696899,521.000000 1888.448120,521.000000 
	C1924.945190,521.000000 1961.442505,520.963867 1997.939209,521.079346 
	C2000.432983,521.087219 2003.145142,521.791626 2005.378174,522.919495 
	C2017.751465,529.169250 2030.052002,535.567810 2042.270874,542.114502 
	C2045.100342,543.630432 2047.268799,544.110962 2050.338623,542.385742 
	C2062.411621,535.601013 2074.645264,529.097961 2086.911133,522.664673 
	C2088.846924,521.649353 2091.250000,521.088928 2093.443359,521.070862 
	C2109.441162,520.939209 2125.441406,520.893127 2141.438965,521.031677 
	C2155.882080,521.156799 2168.476318,526.728027 2179.722656,535.316528 
	C2194.499268,546.600830 2204.834473,560.936951 2208.230957,579.616272 
	C2208.959961,583.626526 2209.917236,587.685303 2209.924805,591.723206 
	C2210.031738,648.718506 2209.993164,705.714050 2209.984619,762.709534 
	C2209.984619,763.206970 2209.912598,763.704346 2209.843750,764.600220 
	C2187.474365,764.600220 2165.085693,764.600220 2142.000000,764.600220 
	C2142.000000,722.670532 2142.000000,680.585266 2142.000000,638.000000 
z"/>
<path fill="#000000" opacity="1.000000" stroke="none" 
	d="
M1543.000000,521.000000 
	C1568.331787,521.000000 1593.163940,520.946655 1617.994995,521.082336 
	C1620.485718,521.095886 1623.192017,521.820129 1625.420898,522.955322 
	C1638.214355,529.470825 1650.842407,536.312500 1663.675659,542.746216 
	C1665.316528,543.568787 1668.173950,543.332703 1669.875244,542.447876 
	C1682.308716,535.981262 1694.555420,529.156799 1706.956909,522.627319 
	C1708.888916,521.610168 1711.305054,521.086426 1713.503052,521.069031 
	C1729.667725,520.941101 1745.835449,520.864319 1761.999146,521.041260 
	C1775.900757,521.193420 1788.154175,526.575684 1799.020996,534.703125 
	C1812.569336,544.836182 1822.963013,557.560181 1827.055542,574.464966 
	C1828.353516,579.826111 1829.854370,585.333435 1829.873779,590.778809 
	C1830.076904,647.941284 1829.998169,705.104858 1829.991699,762.268066 
	C1829.991577,762.927185 1829.916992,763.586304 1829.854492,764.620850 
	C1807.431885,764.620850 1785.043335,764.620850 1762.000000,764.620850 
	C1762.000000,762.790344 1762.000000,760.860352 1762.000000,758.930359 
	C1762.000000,709.100037 1761.972412,659.269653 1762.014893,609.439331 
	C1762.030151,591.468567 1749.251831,578.213867 1731.664307,578.997192 
	C1731.165283,579.019470 1730.664551,579.000000 1730.164551,579.000000 
	C1713.786743,579.000000 1713.786743,579.000000 1699.070801,586.467468 
	C1699.070801,645.638733 1699.070801,704.937927 1699.070801,764.618286 
	C1676.770508,764.618286 1654.715210,764.618286 1632.000000,764.618286 
	C1632.000000,762.796204 1632.000000,760.866882 1632.000000,758.937561 
	C1632.000000,703.107605 1631.966431,647.277527 1632.072388,591.447754 
	C1632.079712,587.558716 1631.134644,585.465576 1627.377319,583.488892 
	C1621.031494,580.150330 1614.732422,578.653992 1607.574219,578.888550 
	C1595.277588,579.291443 1582.958374,579.000000 1570.129150,579.000000 
	C1570.129150,641.009583 1570.129150,702.730652 1570.129150,764.724731 
	C1548.007080,764.724731 1526.403320,764.724731 1504.399292,764.724731 
	C1504.399292,683.805359 1504.399292,602.753296 1504.399292,521.000000 
	C1516.986450,521.000000 1529.743164,521.000000 1543.000000,521.000000 
z"/>
<path fill="#000000" opacity="1.000000" stroke="none" 
	d="
M1062.655518,170.304962 
	C1079.670166,174.218018 1096.474121,177.161087 1111.995972,184.921021 
	C1136.648926,197.245941 1151.504639,217.022736 1157.960205,243.472366 
	C1161.359497,257.399445 1161.946411,271.671326 1160.824707,285.799408 
	C1158.937622,309.570343 1149.426758,329.995148 1130.877075,345.584259 
	C1118.356079,356.107025 1103.621216,362.155609 1087.685791,364.842163 
	C1078.640747,366.367096 1069.334961,366.873413 1060.142944,366.909607 
	C1011.311584,367.101837 962.479065,367.000000 913.646912,367.000000 
	C911.663513,367.000000 909.680176,367.000000 907.349121,367.000000 
	C907.349121,345.370117 907.349121,323.981537 907.349121,302.000000 
	C909.280579,302.000000 911.218994,302.000000 913.157410,302.000000 
	C960.656250,302.000000 1008.155640,302.119934 1055.653564,301.911591 
	C1066.862427,301.862427 1077.177490,298.607574 1083.294189,288.154694 
	C1090.472290,275.888062 1089.901978,263.083313 1082.497192,251.461273 
	C1076.983276,242.807159 1067.866211,238.146744 1057.650879,236.006882 
	C1040.460693,232.406036 1023.274963,228.775345 1006.142456,224.912689 
	C990.772461,221.447388 975.399536,217.943771 960.172485,213.911102 
	C948.089844,210.711212 937.211914,204.794617 927.441589,196.938217 
	C909.294983,182.346420 900.317627,162.996140 896.815002,140.295135 
	C893.908875,121.460472 893.930542,102.928085 899.740723,84.773849 
	C908.446228,57.573112 927.341003,40.256271 954.003540,31.084799 
	C966.323059,26.847073 979.094055,25.002146 992.123108,25.001249 
	C1038.455322,24.998055 1084.787598,25.000004 1131.119751,25.000008 
	C1132.911987,25.000008 1134.704224,25.000008 1136.745117,25.000008 
	C1136.745117,46.701546 1136.745117,67.972267 1136.745117,89.999992 
	C1134.908203,89.999992 1132.992188,89.999992 1131.076050,89.999992 
	C1088.410400,90.000000 1045.742798,89.796364 1003.081177,90.208771 
	C996.298523,90.274338 989.299561,92.444916 982.827393,94.810295 
	C971.014526,99.127510 966.377869,115.419800 968.377258,125.414825 
	C969.498230,131.018402 971.541016,136.695755 974.387695,141.637558 
	C979.068298,149.763123 987.494446,153.384430 996.081482,155.427048 
	C1018.068054,160.657089 1040.208252,165.241608 1062.655518,170.304962 
z"/>
<path fill="#000000" opacity="1.000000" stroke="none" 
	d="
M968.705139,605.408813 
	C969.657410,626.249756 973.854065,645.632385 985.935181,662.662109 
	C997.566284,679.057556 1013.468628,689.238708 1032.497803,695.046570 
	C1046.189087,699.225220 1060.226562,700.014099 1074.390991,700.006348 
	C1109.557251,699.987122 1144.723633,700.000000 1179.889893,700.000000 
	C1181.703125,700.000000 1183.516357,700.000000 1185.663940,700.000000 
	C1185.663940,721.656677 1185.663940,743.045288 1185.663940,765.000000 
	C1183.855225,765.000000 1182.079956,765.000000 1180.304810,765.000000 
	C1131.638672,765.000000 1082.964233,765.531494 1034.309937,764.775513 
	C1010.032410,764.398315 987.158875,757.292908 966.075867,744.714478 
	C953.630310,737.289307 942.679932,728.151611 933.112671,717.453247 
	C922.359375,705.428528 914.778809,691.384521 908.951843,676.345825 
	C902.614624,659.990295 898.175903,643.181824 897.056885,625.666077 
	C896.055481,609.991821 894.727417,594.247803 895.241577,578.590332 
	C895.879517,559.166748 899.257263,539.938538 905.345398,521.398254 
	C913.507385,496.542786 926.301147,474.438141 946.382812,457.207489 
	C963.058105,442.899597 982.081848,432.577026 1003.460388,427.460480 
	C1014.053833,424.925171 1025.123169,423.296051 1035.995361,423.194244 
	C1083.990601,422.744843 1131.992432,423.000000 1179.991943,423.000000 
	C1181.795776,423.000000 1183.599609,423.000000 1185.700073,423.000000 
	C1185.700073,444.730164 1185.700073,466.118530 1185.700073,488.000000 
	C1183.772461,488.000000 1181.987549,488.000000 1180.202515,488.000000 
	C1140.203003,488.000000 1100.199829,487.689606 1060.205444,488.138763 
	C1041.848267,488.344910 1024.380615,493.107666 1008.595154,502.933716 
	C988.569519,515.399109 977.095825,533.870422 972.112427,556.472351 
	C968.597717,572.412964 966.972717,588.614441 968.705139,605.408813 
z"/>
<path fill="#1DEEF8" opacity="1.000000" stroke="none" 
	d="
M438.012756,116.167252 
	C454.025452,111.445267 469.865112,105.969009 486.106476,102.244270 
	C498.689484,99.358536 511.734009,98.104805 524.649048,97.163101 
	C535.805176,96.349648 547.149902,96.132385 558.265991,97.185020 
	C579.559265,99.201370 600.312683,103.992775 620.279663,112.002846 
	C640.110352,119.958229 658.651062,130.191833 675.462463,143.300949 
	C698.348389,161.146790 717.433167,182.457794 732.266174,207.535278 
	C746.390076,231.413940 755.882996,257.006958 760.830811,284.222443 
	C764.007385,301.695221 765.058716,319.458435 763.871826,337.158997 
	C762.170959,362.523407 756.721130,387.150299 746.023376,410.824066 
	C743.000854,409.609619 740.197144,408.649078 738.380676,406.746094 
	C708.924622,375.886444 676.299011,348.106171 649.167542,314.991333 
	C644.420837,257.623627 598.268677,214.257446 542.316284,210.545898 
	C539.688416,209.429794 537.603149,208.043823 535.582947,208.132874 
	C530.490295,208.357330 526.809326,206.442993 523.272461,202.880173 
	C496.315308,175.725555 469.202789,148.725204 442.186798,121.628845 
	C440.582916,120.020210 439.394501,117.997360 438.012756,116.167252 
z"/>
<path fill="#000000" opacity="1.000000" stroke="none" 
	d="
M1541.000000,367.000000 
	C1526.668335,367.000000 1512.835083,367.136139 1499.005493,366.965820 
	C1481.379272,366.748718 1466.103394,360.320160 1453.645874,347.994324 
	C1443.875366,338.327087 1438.158691,326.161804 1436.138916,312.639099 
	C1434.757568,303.390503 1433.861938,293.922180 1434.173340,284.599670 
	C1434.760498,267.020630 1438.695557,250.059143 1451.023315,236.728317 
	C1462.084351,224.767059 1475.946289,216.594925 1492.581299,216.163239 
	C1526.493530,215.283203 1560.429688,215.332169 1594.356079,215.002472 
	C1596.339966,214.983185 1598.324097,215.000000 1600.259277,215.000000 
	C1603.115967,199.003922 1598.501465,181.804672 1585.062988,175.737747 
	C1580.438965,173.650192 1575.084961,172.203690 1570.049683,172.160065 
	C1535.056519,171.856812 1500.059570,172.000000 1465.063843,172.000000 
	C1463.253052,172.000000 1461.442261,172.000000 1459.319824,172.000000 
	C1459.319824,155.645752 1459.319824,139.591766 1459.319824,123.000008 
	C1461.177246,123.000008 1462.956055,123.000015 1464.734863,123.000015 
	C1508.896118,123.000015 1553.057373,123.029472 1597.218628,122.984810 
	C1613.796265,122.968048 1628.258911,128.819138 1640.683594,139.343918 
	C1652.387207,149.258057 1661.562866,161.179794 1665.132446,176.549500 
	C1666.344482,181.768097 1667.858521,187.099609 1667.876831,192.384247 
	C1668.074219,249.209900 1667.999756,306.036499 1667.999756,362.862854 
	C1667.999756,364.013214 1667.999756,365.163574 1667.999756,367.000000 
	C1625.668091,367.000000 1583.584106,367.000000 1541.000000,367.000000 
M1547.500000,257.000000 
	C1540.675049,257.000031 1533.846436,256.860504 1527.026123,257.039551 
	C1520.267212,257.217010 1514.233887,259.754852 1509.313721,264.278656 
	C1499.161255,273.613373 1498.897705,293.395782 1505.864746,305.286438 
	C1511.554565,314.997162 1521.134644,317.754486 1531.417480,317.903534 
	C1553.219604,318.219604 1575.029419,318.004028 1596.836060,317.989014 
	C1598.112427,317.988129 1599.388916,317.832367 1600.680420,317.747711 
	C1600.680420,297.377258 1600.680420,277.339325 1600.680420,257.000000 
	C1583.075073,257.000000 1565.787598,257.000000 1547.500000,257.000000 
z"/>
<path fill="#000000" opacity="1.000000" stroke="none" 
	d="
M2277.261719,561.360718 
	C2285.929932,551.117188 2294.823242,541.697693 2305.895508,534.481384 
	C2319.216064,525.799744 2333.676758,520.269836 2349.344238,518.053284 
	C2358.916260,516.699097 2368.611816,514.929077 2378.196045,515.215393 
	C2400.165283,515.871948 2421.745605,518.855835 2441.542725,529.786560 
	C2460.253906,540.117737 2475.065430,554.121216 2485.457275,572.868591 
	C2493.796631,587.912659 2498.304199,603.953064 2500.146240,621.032959 
	C2501.661865,635.085022 2501.073730,648.882141 2498.783936,662.950439 
	C2440.456543,662.950439 2382.487305,662.950439 2324.461670,662.950439 
	C2330.650146,692.483093 2348.517334,709.963867 2378.957764,713.895020 
	C2387.289307,714.971069 2395.796875,714.901123 2404.226318,714.954895 
	C2426.224854,715.095337 2448.224854,715.012634 2470.224121,715.025330 
	C2470.552979,715.025513 2470.882080,715.107605 2471.605469,715.203979 
	C2471.605469,731.535461 2471.605469,747.925354 2471.605469,765.000000 
	C2469.989502,765.000000 2468.230225,765.000000 2466.471191,765.000000 
	C2437.138672,765.000000 2407.805908,764.893738 2378.474121,765.035461 
	C2357.069092,765.138855 2336.356445,761.593445 2317.047363,752.349487 
	C2303.214111,745.727051 2291.443359,736.209717 2281.452881,724.225464 
	C2267.192139,707.118896 2259.012207,687.358093 2256.404785,665.787109 
	C2254.555176,650.481201 2255.570312,634.761047 2256.106689,619.253418 
	C2256.679688,602.674561 2262.542969,587.428406 2270.084717,572.842957 
	C2272.094971,568.954956 2274.718994,565.384338 2277.261719,561.360718 
M2423.556396,591.073303 
	C2414.887451,576.312134 2402.696289,566.801392 2385.246582,564.565002 
	C2372.981934,562.993286 2361.433350,564.925903 2350.731689,570.886719 
	C2339.654297,577.056946 2332.888672,587.180359 2328.344482,598.589966 
	C2325.579590,605.532288 2324.277100,613.056885 2322.191895,620.786621 
	C2359.816650,620.786621 2396.164795,620.786621 2433.734375,620.786621 
	C2430.343506,610.721252 2427.143799,601.223755 2423.556396,591.073303 
z"/>
<path fill="#000000" opacity="1.000000" stroke="none" 
	d="
M3095.186768,710.968750 
	C3103.283936,712.336243 3110.956055,714.672180 3118.669434,714.816711 
	C3144.484131,715.300049 3170.313232,715.000000 3196.136963,715.000000 
	C3197.927246,715.000000 3199.717529,715.000000 3201.750488,715.000000 
	C3201.750488,731.707947 3201.750488,747.974792 3201.750488,765.000000 
	C3200.075928,765.000000 3198.327637,765.000000 3196.579590,765.000000 
	C3164.425049,765.000000 3132.255859,765.592102 3100.120117,764.815613 
	C3073.657227,764.176086 3048.924072,756.789429 3027.739990,740.147827 
	C3007.568359,724.301453 2995.399658,703.252502 2989.025635,678.632446 
	C2984.503906,661.168274 2984.017578,643.292175 2985.203613,625.538574 
	C2986.663818,603.679565 2992.549561,582.710754 3005.297363,564.592712 
	C3022.245605,540.504883 3045.126709,524.548645 3074.425537,519.115479 
	C3085.823242,517.001892 3097.505859,515.086731 3109.028076,515.248779 
	C3136.209961,515.630920 3162.148926,521.237671 3184.660156,537.909363 
	C3203.247314,551.674805 3216.244873,569.398438 3224.026123,591.178467 
	C3230.808594,610.162781 3231.623779,629.767883 3230.918701,649.563232 
	C3230.763184,653.922913 3229.639893,658.248047 3228.905273,662.954529 
	C3170.957031,662.954529 3113.198242,662.954529 3055.414795,662.954529 
	C3056.431396,678.697327 3068.322266,702.063538 3095.186768,710.968750 
M3078.500000,621.000000 
	C3106.583984,621.000000 3134.667969,621.000000 3162.816650,621.000000 
	C3156.040527,573.044617 3125.188232,559.423706 3096.062256,565.177368 
	C3068.349854,570.651794 3055.046875,596.622192 3053.572266,621.000000 
	C3061.558105,621.000000 3069.529053,621.000000 3078.500000,621.000000 
z"/>
<path fill="#000000" opacity="1.000000" stroke="none" 
	d="
M1722.000000,342.000000 
	C1722.000000,268.870758 1722.000000,196.241486 1722.000000,123.000008 
	C1724.089355,123.000008 1725.857788,123.000015 1727.626099,123.000015 
	C1776.953491,123.000015 1826.282227,122.798981 1875.607544,123.116158 
	C1891.475098,123.218201 1905.212891,129.758896 1917.431030,139.842255 
	C1929.534424,149.830872 1938.112183,162.046936 1941.987915,177.265549 
	C1943.508057,183.234512 1944.847656,189.455643 1944.871338,195.567337 
	C1945.088257,251.726410 1944.998779,307.886658 1944.991699,364.046570 
	C1944.991577,364.848938 1944.903809,365.651306 1944.841431,366.719299 
	C1921.899170,366.719299 1899.179321,366.719299 1876.000000,366.719299 
	C1876.000000,364.567688 1876.000000,362.612091 1876.000000,360.656494 
	C1876.000000,309.995911 1875.912354,259.335083 1876.070312,208.675003 
	C1876.103882,197.915741 1870.479736,191.036819 1862.152588,185.657486 
	C1856.643921,182.098770 1850.484619,180.895721 1843.919556,180.952682 
	C1827.422729,181.095779 1810.923950,181.000015 1794.425903,181.000031 
	C1792.796509,181.000031 1791.166992,181.000015 1789.201172,181.000015 
	C1789.201172,242.998245 1789.201172,304.597717 1789.201172,366.598328 
	C1766.811768,366.598328 1744.757202,366.598328 1722.000000,366.598328 
	C1722.000000,358.684265 1722.000000,350.592133 1722.000000,342.000000 
z"/>
<path fill="#000000" opacity="1.000000" stroke="none" 
	d="
M2745.676270,671.328979 
	C2744.962891,655.876160 2743.444580,640.751892 2744.268799,625.756470 
	C2745.263428,607.663574 2749.193359,589.813538 2758.146484,573.777588 
	C2773.372803,546.506104 2796.349121,529.181274 2827.183350,523.117065 
	C2834.869141,521.605530 2842.859863,521.144165 2850.716553,521.090942 
	C2882.874756,520.873108 2915.035645,521.000000 2947.195557,521.000000 
	C2948.987061,521.000000 2950.778564,521.000000 2952.771729,521.000000 
	C2952.771729,540.419312 2952.771729,559.353943 2952.771729,579.000000 
	C2951.022461,579.000000 2949.267578,579.000000 2947.512695,579.000000 
	C2920.685059,579.000000 2893.857178,579.036133 2867.029541,578.987366 
	C2849.025146,578.954651 2833.498291,584.590576 2821.791016,598.772217 
	C2816.401367,605.300781 2813.201416,613.041138 2812.116211,621.344666 
	C2810.946289,630.299072 2810.012939,639.380615 2810.157959,648.387573 
	C2810.362061,661.037170 2812.629395,673.608459 2820.171387,684.094849 
	C2828.070557,695.077881 2838.991455,702.575378 2852.509521,704.838440 
	C2861.554932,706.352722 2870.851318,706.793091 2880.045654,706.908752 
	C2902.370605,707.189453 2924.701660,707.000000 2947.030273,707.000000 
	C2948.830322,707.000000 2950.630371,707.000000 2952.713379,707.000000 
	C2952.713379,726.420837 2952.713379,745.473083 2952.713379,765.000000 
	C2950.751709,765.000000 2948.964844,765.000000 2947.177979,765.000000 
	C2913.351807,765.000000 2879.515869,765.491821 2845.702637,764.831177 
	C2822.250244,764.372925 2801.229004,756.472717 2782.711914,741.427979 
	C2761.580322,724.258850 2751.355225,701.463196 2746.068848,675.703430 
	C2745.805176,674.417053 2745.953125,673.046143 2745.676270,671.328979 
z"/>
<path fill="#000000" opacity="1.000000" stroke="none" 
	d="
M1345.000000,367.000000 
	C1328.339478,367.000000 1312.175171,367.226959 1296.019531,366.946716 
	C1271.872803,366.527863 1250.499268,358.680725 1231.625122,343.296631 
	C1211.119507,326.582703 1200.857788,304.573395 1195.957642,279.307800 
	C1193.045166,264.291290 1192.293213,249.120148 1193.129639,233.961227 
	C1194.175171,215.011841 1197.384888,196.422562 1205.955566,179.131958 
	C1218.544189,153.736023 1238.655151,137.116623 1265.249756,128.048019 
	C1275.547607,124.536499 1286.153320,122.917366 1297.081055,122.956909 
	C1330.067993,123.076248 1363.055664,123.000015 1396.042969,123.000015 
	C1397.841675,123.000015 1399.640381,123.000008 1401.717407,123.000008 
	C1401.717407,142.426773 1401.717407,161.476715 1401.717407,181.000000 
	C1399.750488,181.000000 1397.963745,181.000000 1396.177124,181.000000 
	C1368.687622,181.000015 1341.193115,180.681427 1313.710815,181.125031 
	C1298.360962,181.372803 1284.579102,186.629227 1273.629150,197.901810 
	C1266.702271,205.032898 1263.233398,213.989807 1261.297485,223.492126 
	C1257.978149,239.783401 1258.121338,256.019135 1262.943481,272.093414 
	C1268.675903,291.201843 1282.194092,301.948395 1300.758911,306.859131 
	C1306.545898,308.389923 1312.749390,308.863281 1318.769165,308.908783 
	C1346.251465,309.116577 1373.736206,309.000000 1401.609863,309.000000 
	C1401.609863,328.207123 1401.609863,347.258636 1401.609863,367.000000 
	C1383.001587,367.000000 1364.250732,367.000000 1345.000000,367.000000 
z"/>
<path fill="#09CBD4" opacity="1.000000" stroke="none" 
	d="
M1.964705,237.565979 
	C2.758342,231.410217 3.566981,225.713882 4.540181,218.858307 
	C6.605436,220.562485 8.011643,221.540680 9.204068,222.732727 
	C107.622719,321.120697 206.021729,419.528320 304.447052,517.909607 
	C306.693329,520.154907 308.849762,522.203125 306.067749,525.793945 
	C291.731049,521.398315 277.336548,517.139160 263.333252,511.845184 
	C248.073303,506.076141 233.096268,499.530334 218.137955,492.997925 
	C189.445709,480.467926 162.301834,465.044617 136.677872,447.135162 
	C122.647865,437.329132 109.277321,426.504730 96.179344,415.463470 
	C85.418335,406.392212 75.077202,396.729462 65.306564,386.599152 
	C51.408867,372.189850 39.583744,356.158752 29.748625,338.598480 
	C17.026896,315.884216 8.813038,291.650177 4.320627,266.164459 
	C2.693558,256.934021 2.712069,247.413528 1.964705,237.565979 
z"/>
<path fill="#000000" opacity="1.000000" stroke="none" 
	d="
M2699.000000,521.000000 
	C2706.134277,521.000000 2712.768555,521.000000 2719.699219,521.000000 
	C2719.699219,540.388367 2719.699219,559.436768 2719.699219,578.816406 
	C2684.314453,578.816406 2649.055176,578.816406 2613.304199,578.816406 
	C2613.304199,640.843628 2613.304199,702.545044 2613.304199,764.622681 
	C2591.101562,764.622681 2569.386719,764.622681 2547.334961,764.622681 
	C2547.334961,683.701355 2547.334961,602.675110 2547.334961,521.000000 
	C2597.694336,521.000000 2648.097168,521.000000 2699.000000,521.000000 
z"/>
<path fill="#14DFE8" opacity="1.000000" stroke="none" 
	d="
M413.951660,379.107208 
	C411.325806,367.640289 408.961212,356.105591 406.008453,344.723480 
	C402.256683,330.261444 398.242523,315.857208 393.853119,301.578186 
	C392.765839,298.041260 393.783691,296.184784 396.175720,294.450836 
	C414.661377,281.050934 434.360504,269.809753 455.854584,261.990631 
	C468.037842,257.558624 480.456635,253.777405 492.723969,249.570831 
	C495.723694,248.542206 497.481750,248.689011 498.673676,252.157562 
	C510.277039,285.923340 519.315369,320.380035 525.824890,355.453979 
	C529.181885,373.541412 531.475342,391.835785 533.882751,410.085022 
	C534.788818,416.954102 534.720337,423.957489 534.986450,430.903839 
	C535.373413,441.010956 535.942688,451.122528 535.917358,461.230927 
	C535.888306,472.839935 535.295166,484.447540 534.596130,496.365356 
	C533.647034,494.878113 533.071411,493.073364 532.444519,491.286621 
	C531.824158,489.518463 531.634827,487.287994 530.432617,486.080231 
	C493.706299,449.182373 456.887604,412.376404 420.024567,375.615051 
	C418.821716,374.415466 417.005524,373.830841 415.231689,372.820892 
	C414.667175,375.593140 414.309418,377.350189 413.951660,379.107208 
z"/>
<path fill="#000000" opacity="1.000000" stroke="none" 
	d="
M2343.000000,173.000000 
	C2343.000000,237.793869 2343.000000,302.087738 2343.000000,366.690521 
	C2320.291748,366.690521 2297.906250,366.690521 2275.259766,366.690521 
	C2275.259766,285.650024 2275.259766,204.723007 2275.259766,123.397888 
	C2297.527832,123.397888 2319.914795,123.397888 2343.000000,123.397888 
	C2343.000000,139.658127 2343.000000,156.079056 2343.000000,173.000000 
z"/>
<path fill="#12DAE4" opacity="1.000000" stroke="none" 
	d="
M39.973164,102.287727 
	C44.191513,95.874557 48.055496,89.547501 52.763481,83.927467 
	C58.386875,77.214691 64.609604,70.984924 70.789017,64.760666 
	C87.773293,47.653137 107.281952,34.117283 129.534729,23.986557 
	C132.367233,27.571394 134.358078,31.670628 137.391525,34.739227 
	C161.124832,58.747684 185.024017,82.592781 208.975830,106.383781 
	C211.773315,109.162460 213.537766,112.013573 213.008820,116.422684 
	C194.214691,119.251274 177.361099,126.449677 162.033188,137.460388 
	C144.566040,150.007782 132.262497,166.561020 123.894913,186.615997 
	C120.925041,185.532486 117.428291,184.710876 115.246811,182.557083 
	C91.495216,159.107117 67.884064,135.513123 44.453342,111.742813 
	C42.211407,109.468384 41.444298,105.740204 39.973164,102.287727 
z"/>
<path fill="#0ACDD6" opacity="1.000000" stroke="none" 
	d="
M411.344727,740.752075 
	C409.626678,739.009094 408.432526,736.994324 406.829987,735.386719 
	C381.153931,709.630310 355.422913,683.928650 329.716797,658.202148 
	C328.194244,656.678406 326.776398,655.050171 325.127258,653.183533 
	C339.496399,648.959290 353.256073,643.246643 365.442444,634.235596 
	C378.868622,624.307678 390.466278,612.586121 398.035156,597.543396 
	C402.226105,589.214172 405.372894,580.359680 409.395386,571.464417 
	C411.453766,572.544861 413.234009,573.775696 414.741547,575.279907 
	C439.080750,599.565308 463.445953,623.825500 487.621063,648.273560 
	C490.650818,651.337524 492.635895,655.434448 495.105042,659.052734 
	C488.220856,669.050476 481.979218,679.574280 474.315552,688.933716 
	C459.469971,707.064148 441.799438,722.208679 421.876923,734.636414 
	C418.526672,736.726379 415.080475,738.662537 411.344727,740.752075 
z"/>
<path fill="#10D8E1" opacity="1.000000" stroke="none" 
	d="
M413.965302,379.536133 
	C414.309418,377.350189 414.667175,375.593140 415.231689,372.820892 
	C417.005524,373.830841 418.821716,374.415466 420.024567,375.615051 
	C456.887604,412.376404 493.706299,449.182373 530.432617,486.080231 
	C531.634827,487.287994 531.824158,489.518463 532.444519,491.286621 
	C533.071411,493.073364 533.647034,494.878113 534.539551,496.830048 
	C533.920654,509.109161 533.208435,521.252686 532.035522,533.351562 
	C530.943726,544.613953 529.422119,555.836670 527.957947,567.059692 
	C527.514404,570.459961 526.632202,573.803101 525.556580,577.619629 
	C521.374451,580.995483 518.807373,579.479370 515.722473,576.367554 
	C487.450348,547.848450 458.980103,519.525818 430.643341,491.070557 
	C427.890533,488.306244 425.646606,485.035187 423.166412,481.999359 
	C423.111938,473.670013 423.492706,465.309631 422.901672,457.018555 
	C421.999634,444.364044 420.575256,431.739868 419.096283,419.135284 
	C417.561890,406.058411 415.698486,393.020172 413.965302,379.536133 
z"/>
<path fill="#18E6F0" opacity="1.000000" stroke="none" 
	d="
M437.639648,116.118927 
	C439.394501,117.997360 440.582916,120.020210 442.186798,121.628845 
	C469.202789,148.725204 496.315308,175.725555 523.272461,202.880173 
	C526.809326,206.442993 530.490295,208.357330 535.582947,208.132874 
	C537.603149,208.043823 539.688416,209.429794 541.876953,210.487823 
	C506.080750,211.087692 473.394440,223.896805 440.209473,236.769043 
	C435.998108,233.442490 432.140076,230.547043 428.750702,227.179840 
	C407.372772,205.941666 386.022675,184.673828 364.887329,163.195374 
	C362.252319,160.517593 360.936951,156.541275 359.010101,153.166656 
	C370.619354,146.981155 382.006744,140.324081 393.895081,134.731873 
	C408.128784,128.036438 422.790283,122.250458 437.639648,116.118927 
z"/>
<path fill="#19E6F0" opacity="1.000000" stroke="none" 
	d="
M649.100647,315.456360 
	C676.299011,348.106171 708.924622,375.886444 738.380676,406.746094 
	C740.197144,408.649078 743.000854,409.609619 745.728882,411.026733 
	C742.390930,419.089142 739.199707,427.434204 734.842651,435.118103 
	C724.231567,453.831177 711.433105,470.959503 695.180664,485.640289 
	C693.047546,483.449188 691.615417,481.181061 689.767944,479.326630 
	C666.337708,455.807556 642.852600,432.343140 619.360840,408.885437 
	C617.959045,407.485748 616.382080,406.261444 614.886658,404.955536 
	C623.898804,395.477966 632.377991,385.402771 637.552795,373.407562 
	C642.000305,363.098328 645.398560,352.156555 647.718689,341.168854 
	C649.438721,333.023651 648.685364,324.356171 649.100647,315.456360 
z"/>
<path fill="#0ED3DD" opacity="1.000000" stroke="none" 
	d="
M422.959717,482.371429 
	C425.646606,485.035187 427.890533,488.306244 430.643341,491.070557 
	C458.980103,519.525818 487.450348,547.848450 515.722473,576.367554 
	C518.807373,579.479370 521.374451,580.995483 525.498047,578.030029 
	C520.551086,595.180847 515.641663,612.496094 509.826355,629.501526 
	C506.974457,637.841248 502.441162,645.605896 498.152710,653.902710 
	C497.460968,654.798523 497.285370,655.422424 497.109741,656.046387 
	C496.612946,656.935608 496.116150,657.824829 495.362183,658.883423 
	C492.635895,655.434448 490.650818,651.337524 487.621063,648.273560 
	C463.445953,623.825500 439.080750,599.565308 414.741547,575.279907 
	C413.234009,573.775696 411.453766,572.544861 409.482910,571.091248 
	C414.272125,554.498230 417.545715,537.642700 419.017487,520.437744 
	C420.040588,508.477234 421.034607,496.514221 422.077209,484.555450 
	C422.131195,483.936554 422.520081,483.346832 422.959717,482.371429 
z"/>
<path fill="#15E1EA" opacity="1.000000" stroke="none" 
	d="
M358.703186,153.204269 
	C360.936951,156.541275 362.252319,160.517593 364.887329,163.195374 
	C386.022675,184.673828 407.372772,205.941666 428.750702,227.179840 
	C432.140076,230.547043 435.998108,233.442490 439.842896,236.832794 
	C439.576996,237.409134 439.107666,237.708740 438.145599,237.789917 
	C433.469574,234.674408 432.691772,237.673874 432.006012,240.832733 
	C415.583282,250.218109 399.160553,259.603485 382.298737,268.716522 
	C380.658539,266.881683 379.613281,265.163696 378.233093,263.779785 
	C354.521698,240.003830 330.773346,216.264664 307.013031,192.537521 
	C305.726959,191.253250 304.264587,190.145538 302.884277,188.955627 
	C319.333435,178.305740 335.782562,167.655838 352.763519,157.188202 
	C356.580841,159.558105 355.598572,156.518738 355.994141,155.166901 
	C356.794861,154.525223 357.595581,153.883545 358.703186,153.204269 
z"/>
<path fill="#16E2EB" opacity="1.000000" stroke="none" 
	d="
M614.588379,405.104492 
	C616.382080,406.261444 617.959045,407.485748 619.360840,408.885437 
	C642.852600,432.343140 666.337708,455.807556 689.767944,479.326630 
	C691.615417,481.181061 693.047546,483.449188 694.885681,485.791718 
	C682.790405,499.604370 667.925781,509.860992 652.384949,519.246094 
	C650.845398,520.175842 649.287109,521.074524 647.350342,521.681763 
	C645.328735,518.770813 644.107605,515.756714 641.996277,513.623962 
	C621.212891,492.629578 600.270264,471.792938 579.407043,450.877350 
	C576.889832,448.353790 574.575439,445.627960 572.167053,442.995880 
	C571.827271,440.406372 571.490967,437.816437 571.146667,435.227509 
	C570.793579,432.572540 571.091797,430.905487 574.316650,429.685730 
	C589.141479,424.078278 602.578979,416.036591 614.588379,405.104492 
z"/>
<path fill="#0FD5DF" opacity="1.000000" stroke="none" 
	d="
M311.051849,331.104889 
	C307.111877,335.160889 303.140076,339.186554 299.239624,343.280212 
	C293.741669,349.050507 288.212494,354.795258 282.871521,360.708832 
	C280.827515,362.971954 279.019165,363.194641 276.391357,361.777588 
	C248.895554,346.950378 221.916107,331.313416 197.351990,311.853241 
	C193.469879,308.777740 189.727249,305.526672 185.896378,302.385742 
	C183.532394,300.447479 183.775940,298.762756 185.855423,296.608826 
	C200.744003,281.187103 215.539825,265.675873 230.680084,250.420258 
	C232.273849,252.875336 233.145157,255.507324 234.893158,257.269867 
	C257.280853,279.844055 279.755615,302.332489 302.328796,324.721222 
	C304.858490,327.230225 308.126312,328.994995 311.051849,331.104889 
z"/>
<path fill="#11DAE3" opacity="1.000000" stroke="none" 
	d="
M311.391327,331.035217 
	C308.126312,328.994995 304.858490,327.230225 302.328796,324.721222 
	C279.755615,302.332489 257.280853,279.844055 234.893158,257.269867 
	C233.145157,255.507324 232.273849,252.875336 230.978027,250.262970 
	C241.404022,240.339783 251.847046,230.801102 262.948395,221.093445 
	C266.998322,219.770004 269.145935,221.574448 271.389954,223.828781 
	C293.447754,245.988220 315.643127,268.011261 337.608459,290.261536 
	C340.640259,293.332642 342.632751,297.429688 345.106384,301.051788 
	C338.524811,306.994019 331.956573,312.951080 325.357086,318.873352 
	C320.837494,322.929169 316.274445,326.936554 311.391327,331.035217 
z"/>
<path fill="#13DDE7" opacity="1.000000" stroke="none" 
	d="
M345.401733,300.896729 
	C342.632751,297.429688 340.640259,293.332642 337.608459,290.261536 
	C315.643127,268.011261 293.447754,245.988220 271.389954,223.828781 
	C269.145935,221.574448 266.998322,219.770004 263.244507,220.941574 
	C270.801910,214.343979 278.651642,207.643143 286.666412,201.145874 
	C291.746124,197.027954 297.071564,193.213165 302.585541,189.109039 
	C304.264587,190.145538 305.726959,191.253250 307.013031,192.537521 
	C330.773346,216.264664 354.521698,240.003830 378.233093,263.779785 
	C379.613281,265.163696 380.658539,266.881683 381.948090,268.783051 
	C375.951965,274.614624 369.942535,280.193604 363.761292,285.575317 
	C357.832611,290.737213 351.725708,295.694458 345.401733,300.896729 
z"/>
<path fill="#000000" opacity="1.000000" stroke="none" 
	d="
M2285.066406,76.011383 
	C2274.230469,67.816978 2268.541504,56.919285 2268.201904,43.882450 
	C2267.972412,35.071079 2270.314697,26.473461 2276.185303,19.305475 
	C2289.434326,3.128921 2310.333496,-0.834566 2327.867188,9.035345 
	C2339.084473,15.349468 2345.968994,24.698656 2348.131592,37.849140 
	C2351.694092,59.513359 2334.907715,78.960419 2316.661865,82.463585 
	C2305.858154,84.537842 2294.638916,84.017868 2285.066406,76.011383 
z"/>
<path fill="#14DDE7" opacity="1.000000" stroke="none" 
	d="
M572.104248,443.430847 
	C574.575439,445.627960 576.889832,448.353790 579.407043,450.877350 
	C600.270264,471.792938 621.212891,492.629578 641.996277,513.623962 
	C644.107605,515.756714 645.328735,518.770813 646.997986,521.750122 
	C628.235840,532.992798 608.104248,540.358215 586.941284,545.015686 
	C580.403381,546.454529 573.864746,547.889648 566.503357,549.507324 
	C567.639526,539.269531 568.701294,529.854309 569.722229,520.434753 
	C570.184082,516.173523 570.713501,511.911804 570.950317,507.635803 
	C571.399292,499.532013 571.681458,491.418671 571.992004,483.307709 
	C572.340759,474.199982 572.644470,465.090515 573.127075,455.238312 
	C572.913086,452.999207 572.539856,451.503601 572.166626,450.007965 
	C572.124878,447.960571 572.083130,445.913208 572.104248,443.430847 
z"/>
<path fill="#18E6F0" opacity="1.000000" stroke="none" 
	d="
M432.340820,240.768616 
	C432.691772,237.673874 433.469574,234.674408 437.851685,237.838882 
	C436.258850,238.972336 434.467224,239.838425 432.340820,240.768616 
z"/>
<path fill="#16E2EB" opacity="1.000000" stroke="none" 
	d="
M572.108643,450.389404 
	C572.539856,451.503601 572.913086,452.999207 573.091919,454.774384 
	C572.615234,453.626251 572.332947,452.198517 572.108643,450.389404 
z"/>
<path fill="#18E6F0" opacity="1.000000" stroke="none" 
	d="
M355.676788,155.121674 
	C355.598572,156.518738 356.580841,159.558105 353.122009,157.132477 
	C353.752289,156.288498 354.555878,155.682480 355.676788,155.121674 
z"/>
<path fill="#0ACDD6" opacity="1.000000" stroke="none" 
	d="
M497.360718,655.888123 
	C497.285370,655.422424 497.460968,654.798523 497.875183,654.108154 
	C497.946381,654.604431 497.779022,655.167175 497.360718,655.888123 
z"/>
</svg>