<svg viewBox="0 0 101 44" xmlns:xlink="http://www.w3.org/1999/xlink" xmlns="http://www.w3.org/2000/svg" width="1000" height="435.64" fill="none" role="img" aria-describedby="plus-badge-title"><title id="plus-badge-title" fill="none">Plus tier</title><g fill="#000" filter="url(#a)"><path d="M44.887 12.81a3.23 3.23 0 0 0 1.636.449c.934 0 1.486-.48 1.486-1.18 0-.649-.382-1.025-1.338-1.38-1.157-.408-1.869-1.003-1.869-1.975 0-1.087.913-1.891 2.294-1.891.722 0 1.253.167 1.561.334l-.255.742c-.223-.136-.7-.334-1.338-.334-.977 0-1.338.564-1.338 1.045 0 .647.435.96 1.412 1.337 1.2.46 1.806 1.034 1.806 2.048s-.797 2.006-2.475 2.006c-.68 0-1.433-.198-1.805-.449l.244-.752h-.02ZM52.576 6.937v2.916h3.42V6.937h.924v6.96h-.924v-3.271h-3.42v3.27h-.924V6.937h.924ZM66.136 10.354c0 2.393-1.476 3.668-3.281 3.668-1.805 0-3.186-1.431-3.186-3.532 0-2.1 1.391-3.667 3.281-3.667 1.89 0 3.186 1.452 3.186 3.531Zm-5.49.105c0 1.494.818 2.821 2.262 2.821s2.272-1.306 2.272-2.894c0-1.39-.732-2.832-2.25-2.832-1.52 0-2.273 1.38-2.273 2.905h-.011ZM68.908 7.02c.446-.072 1.02-.135 1.763-.135.892 0 1.561.209 1.986.575.382.334.627.836.627 1.452 0 .617-.192 1.129-.553 1.494-.488.512-1.274.763-2.166.763-.276 0-.531 0-.743-.063v2.79h-.914V7.021Zm.913 3.355c.202.063.457.084.755.084 1.104 0 1.773-.533 1.773-1.484s-.67-1.369-1.667-1.369c-.404 0-.701.042-.86.073v2.707-.011ZM76.915 6.937v6.96h-.924v-6.96h.924ZM80.006 6.937h3.812v.753H80.93v2.32h2.676v.741H80.93v3.156h-.924v-6.97ZM88.459 13.907V10.95l-2.241-4.013h1.051l.998 1.923c.266.522.489.95.701 1.442h.022c.19-.46.435-.92.711-1.442l1.02-1.923h1.04l-2.368 4.002v2.968h-.934ZM44.95 18.661c.468-.083 1.116-.146 1.976-.146.945 0 1.636.198 2.082.564.424.345.69.888.69 1.547 0 .658-.212 1.201-.605 1.577-.52.512-1.317.753-2.241.753-.244 0-.457-.01-.637-.052v2.633H44.93V18.66h.02Zm1.286 3.25c.17.042.372.063.637.063.967 0 1.561-.47 1.561-1.286 0-.762-.541-1.18-1.444-1.18-.35 0-.616.03-.754.062v2.351-.01ZM52.32 18.578h1.296v5.893h2.91v1.066H52.32v-6.96ZM60.18 18.578v4.054c0 1.359.573 1.996 1.454 1.996.935 0 1.487-.627 1.487-1.996v-4.054h1.296v3.981c0 2.142-1.126 3.103-2.836 3.103s-2.697-.898-2.697-3.092v-3.982h1.295v-.01ZM67.316 24.147c.414.24 1.052.44 1.71.44.828 0 1.285-.377 1.285-.952 0-.522-.361-.836-1.253-1.16-1.168-.407-1.912-1.024-1.912-2.027 0-1.139.967-1.996 2.507-1.996.764 0 1.327.157 1.699.345l-.308 1.024a3.056 3.056 0 0 0-1.413-.334c-.817 0-1.168.428-1.168.836 0 .533.414.784 1.36 1.139 1.231.46 1.815 1.066 1.815 2.069 0 1.118-.86 2.09-2.686 2.09-.754 0-1.53-.21-1.912-.44l.287-1.055-.01.021ZM45.004 30.291c.446-.073 1.02-.136 1.763-.136.892 0 1.56.21 1.986.575.382.335.626.836.626 1.453 0 .616-.191 1.128-.552 1.494-.488.512-1.274.763-2.166.763-.276 0-.531 0-.744-.063v2.79h-.913V30.29Zm.913 3.355c.202.062.457.083.754.083 1.105 0 1.774-.533 1.774-1.484 0-.95-.67-1.368-1.668-1.368-.403 0-.7.041-.86.073v2.706-.01ZM52.873 34.983l-.732 2.184h-.946l2.411-6.96h1.104l2.422 6.96h-.977l-.754-2.184h-2.527Zm2.326-.71-.701-2.007c-.149-.46-.255-.867-.361-1.275h-.021c-.106.408-.213.836-.35 1.254l-.702 2.017H55.2v.01ZM59.871 30.302c.467-.094 1.126-.146 1.763-.146.966 0 1.614.177 2.05.574.35.303.552.784.552 1.327 0 .92-.595 1.526-1.338 1.777v.02c.541.189.87.69 1.04 1.411.234.972.404 1.64.542 1.912h-.945c-.106-.198-.266-.794-.467-1.672-.213-.95-.595-1.327-1.423-1.347h-.86v3.02h-.914V30.301Zm.913 3.166h.935c.977 0 1.593-.523 1.593-1.327 0-.91-.659-1.296-1.625-1.296-.446 0-.754.042-.903.084v2.539ZM68.569 30.96h-2.156v-.763h5.246v.763h-2.166v6.207h-.924V30.96ZM73.995 37.167v-6.96h1.009l2.262 3.522c.52.815.924 1.547 1.264 2.267h.02c-.084-.94-.095-1.786-.095-2.873v-2.915h.86v6.959h-.934l-2.252-3.532c-.488-.784-.966-1.578-1.316-2.33h-.032c.053.888.064 1.734.064 2.884v2.978h-.86.01ZM86.303 33.907h-2.74v2.518h3.07v.752H82.65v-6.959h3.823v.753h-2.91v2.204h2.74v.742-.01ZM89.585 30.302c.467-.094 1.126-.146 1.763-.146.966 0 1.614.177 2.05.574.35.303.552.784.552 1.327 0 .92-.595 1.526-1.338 1.777v.02c.541.189.87.69 1.04 1.411.234.972.404 1.64.542 1.912h-.945c-.106-.198-.266-.794-.468-1.672-.212-.95-.594-1.327-1.423-1.347h-.86v3.02h-.913V30.301Zm.913 3.166h.935c.977 0 1.593-.523 1.593-1.327 0-.91-.659-1.296-1.625-1.296-.446 0-.754.042-.903.084v2.539Z"></path><path fill-rule="evenodd" d="M37.725 6.823H6.875v30.355h30.85V6.823Zm-14.527 8.244c0-.408-.053-.982-.255-1.473.626.115.945.815 1.072 1.222-.244.073-.52.157-.817.251Zm-3.303 5.444c.021.343.4.58.86.866.703.438 1.59.991 1.667 2.217.107 1.598-.87 2.685-2.272 2.779-1.689.104-2.613-.867-2.613-.867l.361-1.474s.935.69 1.678.638a.657.657 0 0 0 .648-.69c-.032-.494-.416-.76-.847-1.059-.552-.383-1.184-.822-1.255-1.867-.107-1.567.955-3.145 3.28-3.291.893-.052 1.36.167 1.36.167l-.53 1.944s-.595-.262-1.296-.22c-1.03.063-1.041.7-1.03.857h-.011Zm1.614-7.419c.191 0 .361.042.5.125a2.519 2.519 0 0 0-.649.492c-.53.553-.934 1.41-1.093 2.236-.327.102-.654.2-.967.294l-.478.145c.287-1.306 1.402-3.25 2.687-3.292Zm.553 2.318h-.001c-.383.114-.78.233-1.178.357.17-.637.499-1.264.892-1.682.148-.157.35-.324.594-.429.234.47.276 1.129.276 1.578l-.583.176Zm3.005-.907s-.192.062-.51.156a4.061 4.061 0 0 0-.244-.585c-.361-.679-.892-1.034-1.54-1.034h-.138l-.064-.063a1.327 1.327 0 0 0-1.073-.418c-.828.021-1.656.606-2.336 1.651-.478.732-.828 1.651-.934 2.362a93.45 93.45 0 0 1-1.636.49c-.478.147-.499.157-.563.607-.042.334-1.306 9.833-1.306 9.833l10.471 1.765V14.482s-.095.01-.127.02Zm4.82 13.793-4.523 1.055V14.774c.297.272 1.072.972 1.072.972l1.338.021c.064 0 .15.052.16.136.01.083 1.954 12.393 1.954 12.393Z" clip-rule="evenodd"></path></g><defs><filter id="a" width="87.319" height="34.355" x="6.875" y="6.823" color-interpolation-filters="sRGB" filterUnits="userSpaceOnUse"><feFlood flood-opacity="0" result="BackgroundImageFix"></feFlood><feBlend in="SourceGraphic" in2="BackgroundImageFix" result="shape"></feBlend><feColorMatrix in="SourceAlpha" result="hardAlpha" values="0 0 0 0 0 0 0 0 0 0 0 0 0 0 0 0 0 0 127 0"></feColorMatrix><feOffset dy="4"></feOffset><feGaussianBlur stdDeviation="2"></feGaussianBlur><feComposite in2="hardAlpha" k2="-1" k3="1" operator="arithmetic"></feComposite><feColorMatrix values="0 0 0 0 0 0 0 0 0 0 0 0 0 0 0 0 0 0 0.25 0"></feColorMatrix><feBlend in2="shape" result="effect1_innerShadow_3151_69323"></feBlend></filter></defs></svg>